<?xml version="1.0" standalone="no"?>
<!DOCTYPE svg PUBLIC "-//W3C//DTD SVG 20010904//EN"
 "http://www.w3.org/TR/2001/REC-SVG-20010904/DTD/svg10.dtd">
<svg version="1.0" xmlns="http://www.w3.org/2000/svg"
 width="2000.000000pt" height="2000.000000pt" viewBox="0 0 2000.000000 2000.000000"
 preserveAspectRatio="xMidYMid meet">

<g transform="translate(0.000000,2000.000000) scale(0.100000,-0.100000)"
fill="#000000" stroke="none">
<path d="M7747 11285 l-747 -1285 747 -1285 748 -1285 1505 0 1505 0 748 1285
747 1285 -747 1285 -748 1285 -1505 0 -1505 0 -748 -1285z m4362 -80 l701
-1205 -701 -1205 -701 -1205 -1408 0 -1408 0 -701 1205 -701 1205 701 1205
701 1205 1408 0 1408 0 701 -1205z"/>
<path d="M8019 11148 c-390 -669 -654 -1133 -654 -1148 0 -15 261 -473 654
-1147 l654 -1123 238 0 239 0 0 340 0 340 -200 0 -200 0 0 280 0 280 1250 0
1250 0 0 -280 0 -280 -200 0 -200 0 0 -340 0 -340 239 0 238 0 661 1135 660
1135 -660 1135 -661 1135 -1327 0 -1327 0 -654 -1122z m1412 41 c19 -7 49 -26
68 -43 149 -138 41 -383 -161 -364 -48 5 -49 4 -93 -44 -152 -169 -258 -421
-272 -645 l-6 -93 1142 0 1141 0 0 28 c0 51 -32 215 -57 297 -45 144 -145 329
-232 427 -31 35 -33 36 -86 31 -195 -20 -310 209 -177 351 77 81 213 87 292
12 68 -63 86 -146 53 -238 l-17 -48 26 -27 c81 -87 195 -292 249 -449 30 -89
69 -286 69 -350 l0 -34 434 -2 435 -3 -207 -382 -207 -382 -1825 0 -1825 0
-207 382 -207 382 545 3 544 2 0 59 c0 71 24 211 51 306 47 159 149 339 261
461 l29 31 -20 44 c-39 85 -19 181 50 245 55 51 136 67 210 43z"/>
</g>
</svg>
